M48
;DRILL file {KiCad 4.0.7-e2-6376~58~ubuntu16.04.1} date Mon Aug 27 17:30:21 2018
;FORMAT={-:-/ absolute / inch / decimal}
FMAT,2
INCH,TZ
T1C0.025
T2C0.040
T3C0.043
T4C0.047
T5C0.070
T6C0.107
T7C0.120
%
G90
G05
M72
T1
X1.5648Y-1.8162
X1.905Y-1.55
X2.8487Y-2.0922
T2
X2.72Y-1.55
X2.72Y-1.65
X2.72Y-1.75
X2.72Y-1.85
T3
X1.5441Y-2.285
X1.6425Y-2.285
X1.7409Y-2.285
T4
X1.4936Y-1.14
X1.6314Y-1.14
X2.0561Y-1.14
X2.1939Y-1.14
X2.6186Y-1.14
X2.7564Y-1.14
T5
X2.363Y-2.2
X2.55Y-2.2
X2.737Y-2.2
T6
X1.4495Y-2.1984
X1.8355Y-2.1984
T7
X1.125Y-1.125
X1.125Y-2.375
X3.125Y-1.125
X3.125Y-2.375
T0
M30
