G04 #@! TF.FileFunction,Soldermask,Top*
%FSLAX46Y46*%
G04 Gerber Fmt 4.6, Leading zero omitted, Abs format (unit mm)*
G04 Created by KiCad (PCBNEW 4.0.7-e2-6376~58~ubuntu16.04.1) date Wed Sep  5 13:54:12 2018*
%MOMM*%
%LPD*%
G01*
G04 APERTURE LIST*
%ADD10C,0.150000*%
%ADD11C,3.302000*%
%ADD12C,1.930400*%
%ADD13C,3.175000*%
%ADD14R,0.914400X0.914400*%
%ADD15C,2.540000*%
%ADD16R,1.220000X0.620000*%
%ADD17C,1.524000*%
%ADD18R,1.200000X0.900000*%
%ADD19R,0.900000X1.200000*%
%ADD20R,1.651000X1.651000*%
%ADD21C,1.651000*%
%ADD22R,1.800000X1.800000*%
%ADD23C,1.800000*%
G04 APERTURE END LIST*
D10*
D11*
X28575000Y-60325000D03*
D12*
X41696640Y-57912000D03*
X44196000Y-57912000D03*
X46695360Y-57912000D03*
D13*
X39293800Y-55712360D03*
X49098200Y-55712360D03*
D14*
X59436000Y-47879000D03*
X59436000Y-46101000D03*
X61468000Y-46990000D03*
D15*
X59639200Y-55626000D03*
X64389000Y-55626000D03*
X69138800Y-55626000D03*
D16*
X43728000Y-37785000D03*
X43728000Y-38735000D03*
X43728000Y-39685000D03*
X41108000Y-39685000D03*
X41108000Y-38735000D03*
X41108000Y-37785000D03*
D11*
X79375000Y-28575000D03*
X28575000Y-28575000D03*
D17*
X69088000Y-46990000D03*
X69088000Y-44450000D03*
X69088000Y-41910000D03*
X69088000Y-39370000D03*
D18*
X32215000Y-35687000D03*
X30015000Y-35687000D03*
X30015000Y-45720000D03*
X32215000Y-45720000D03*
D19*
X38862000Y-47963000D03*
X38862000Y-45763000D03*
X43180000Y-45763000D03*
X43180000Y-47963000D03*
X48768000Y-38270000D03*
X48768000Y-40470000D03*
X48768000Y-48090000D03*
X48768000Y-45890000D03*
X53213000Y-40470000D03*
X53213000Y-38270000D03*
X57658000Y-38270000D03*
X57658000Y-40470000D03*
X53213000Y-45890000D03*
X53213000Y-48090000D03*
X62103000Y-40470000D03*
X62103000Y-38270000D03*
D11*
X79375000Y-60325000D03*
D14*
X33909000Y-41783000D03*
X33909000Y-40005000D03*
X35941000Y-40894000D03*
D20*
X33655000Y-50673000D03*
D21*
X33655000Y-53213000D03*
X33655000Y-55753000D03*
D22*
X35333940Y-28956000D03*
D23*
X38834060Y-28956000D03*
D22*
X46594640Y-28956000D03*
D23*
X50094760Y-28956000D03*
D22*
X57855240Y-28956000D03*
D23*
X61355360Y-28956000D03*
D22*
X69115940Y-28956000D03*
D23*
X72616060Y-28956000D03*
M02*
