G04 #@! TF.FileFunction,Legend,Bot*
%FSLAX46Y46*%
G04 Gerber Fmt 4.6, Leading zero omitted, Abs format (unit mm)*
G04 Created by KiCad (PCBNEW 4.0.7-e2-6376~58~ubuntu16.04.1) date Wed Aug 29 11:31:53 2018*
%MOMM*%
%LPD*%
G01*
G04 APERTURE LIST*
%ADD10C,0.150000*%
%ADD11C,0.203200*%
G04 APERTURE END LIST*
D10*
D11*
X27003829Y-35052002D02*
X27052210Y-35197145D01*
X27100590Y-35245526D01*
X27197352Y-35293907D01*
X27342495Y-35293907D01*
X27439257Y-35245526D01*
X27487638Y-35197145D01*
X27536019Y-35100383D01*
X27536019Y-34713336D01*
X26520019Y-34713336D01*
X26520019Y-35052002D01*
X26568400Y-35148764D01*
X26616781Y-35197145D01*
X26713543Y-35245526D01*
X26810305Y-35245526D01*
X26907067Y-35197145D01*
X26955448Y-35148764D01*
X27003829Y-35052002D01*
X27003829Y-34713336D01*
X27536019Y-36164764D02*
X27003829Y-36164764D01*
X26907067Y-36116383D01*
X26858686Y-36019621D01*
X26858686Y-35826098D01*
X26907067Y-35729336D01*
X27487638Y-36164764D02*
X27536019Y-36068002D01*
X27536019Y-35826098D01*
X27487638Y-35729336D01*
X27390876Y-35680955D01*
X27294114Y-35680955D01*
X27197352Y-35729336D01*
X27148971Y-35826098D01*
X27148971Y-36068002D01*
X27100590Y-36164764D01*
X27487638Y-37084002D02*
X27536019Y-36987240D01*
X27536019Y-36793717D01*
X27487638Y-36696955D01*
X27439257Y-36648574D01*
X27342495Y-36600193D01*
X27052210Y-36600193D01*
X26955448Y-36648574D01*
X26907067Y-36696955D01*
X26858686Y-36793717D01*
X26858686Y-36987240D01*
X26907067Y-37084002D01*
X27536019Y-37519431D02*
X26520019Y-37519431D01*
X27148971Y-37616193D02*
X27536019Y-37906478D01*
X26858686Y-37906478D02*
X27245733Y-37519431D01*
X27536019Y-38487050D02*
X27487638Y-38390288D01*
X27390876Y-38341907D01*
X26520019Y-38341907D01*
X27536019Y-38874097D02*
X26858686Y-38874097D01*
X26520019Y-38874097D02*
X26568400Y-38825716D01*
X26616781Y-38874097D01*
X26568400Y-38922478D01*
X26520019Y-38874097D01*
X26616781Y-38874097D01*
X26858686Y-39793335D02*
X27681162Y-39793335D01*
X27777924Y-39744954D01*
X27826305Y-39696573D01*
X27874686Y-39599812D01*
X27874686Y-39454669D01*
X27826305Y-39357907D01*
X27487638Y-39793335D02*
X27536019Y-39696573D01*
X27536019Y-39503050D01*
X27487638Y-39406288D01*
X27439257Y-39357907D01*
X27342495Y-39309526D01*
X27052210Y-39309526D01*
X26955448Y-39357907D01*
X26907067Y-39406288D01*
X26858686Y-39503050D01*
X26858686Y-39696573D01*
X26907067Y-39793335D01*
X27536019Y-40277145D02*
X26520019Y-40277145D01*
X27536019Y-40712573D02*
X27003829Y-40712573D01*
X26907067Y-40664192D01*
X26858686Y-40567430D01*
X26858686Y-40422288D01*
X26907067Y-40325526D01*
X26955448Y-40277145D01*
X26858686Y-41051240D02*
X26858686Y-41438288D01*
X26520019Y-41196383D02*
X27390876Y-41196383D01*
X27487638Y-41244764D01*
X27536019Y-41341526D01*
X27536019Y-41438288D01*
X27439257Y-43131620D02*
X27487638Y-43083239D01*
X27536019Y-42938096D01*
X27536019Y-42841334D01*
X27487638Y-42696192D01*
X27390876Y-42599430D01*
X27294114Y-42551049D01*
X27100590Y-42502668D01*
X26955448Y-42502668D01*
X26761924Y-42551049D01*
X26665162Y-42599430D01*
X26568400Y-42696192D01*
X26520019Y-42841334D01*
X26520019Y-42938096D01*
X26568400Y-43083239D01*
X26616781Y-43131620D01*
X27536019Y-43712192D02*
X27487638Y-43615430D01*
X27439257Y-43567049D01*
X27342495Y-43518668D01*
X27052210Y-43518668D01*
X26955448Y-43567049D01*
X26907067Y-43615430D01*
X26858686Y-43712192D01*
X26858686Y-43857334D01*
X26907067Y-43954096D01*
X26955448Y-44002477D01*
X27052210Y-44050858D01*
X27342495Y-44050858D01*
X27439257Y-44002477D01*
X27487638Y-43954096D01*
X27536019Y-43857334D01*
X27536019Y-43712192D01*
X26858686Y-44486287D02*
X27536019Y-44486287D01*
X26955448Y-44486287D02*
X26907067Y-44534668D01*
X26858686Y-44631430D01*
X26858686Y-44776572D01*
X26907067Y-44873334D01*
X27003829Y-44921715D01*
X27536019Y-44921715D01*
X26858686Y-45260382D02*
X26858686Y-45647430D01*
X26520019Y-45405525D02*
X27390876Y-45405525D01*
X27487638Y-45453906D01*
X27536019Y-45550668D01*
X27536019Y-45647430D01*
X27536019Y-45986096D02*
X26858686Y-45986096D01*
X27052210Y-45986096D02*
X26955448Y-46034477D01*
X26907067Y-46082858D01*
X26858686Y-46179620D01*
X26858686Y-46276381D01*
X27536019Y-46760191D02*
X27487638Y-46663429D01*
X27439257Y-46615048D01*
X27342495Y-46566667D01*
X27052210Y-46566667D01*
X26955448Y-46615048D01*
X26907067Y-46663429D01*
X26858686Y-46760191D01*
X26858686Y-46905333D01*
X26907067Y-47002095D01*
X26955448Y-47050476D01*
X27052210Y-47098857D01*
X27342495Y-47098857D01*
X27439257Y-47050476D01*
X27487638Y-47002095D01*
X27536019Y-46905333D01*
X27536019Y-46760191D01*
X27536019Y-47679429D02*
X27487638Y-47582667D01*
X27390876Y-47534286D01*
X26520019Y-47534286D01*
X27536019Y-48211619D02*
X27487638Y-48114857D01*
X27390876Y-48066476D01*
X26520019Y-48066476D01*
X27487638Y-48985713D02*
X27536019Y-48888951D01*
X27536019Y-48695428D01*
X27487638Y-48598666D01*
X27390876Y-48550285D01*
X27003829Y-48550285D01*
X26907067Y-48598666D01*
X26858686Y-48695428D01*
X26858686Y-48888951D01*
X26907067Y-48985713D01*
X27003829Y-49034094D01*
X27100590Y-49034094D01*
X27197352Y-48550285D01*
X27536019Y-49469523D02*
X26858686Y-49469523D01*
X27052210Y-49469523D02*
X26955448Y-49517904D01*
X26907067Y-49566285D01*
X26858686Y-49663047D01*
X26858686Y-49759808D01*
X26520019Y-50727427D02*
X27536019Y-51066094D01*
X26520019Y-51404760D01*
X26520019Y-51936951D02*
X26520019Y-52033712D01*
X26568400Y-52130474D01*
X26616781Y-52178855D01*
X26713543Y-52227236D01*
X26907067Y-52275617D01*
X27148971Y-52275617D01*
X27342495Y-52227236D01*
X27439257Y-52178855D01*
X27487638Y-52130474D01*
X27536019Y-52033712D01*
X27536019Y-51936951D01*
X27487638Y-51840189D01*
X27439257Y-51791808D01*
X27342495Y-51743427D01*
X27148971Y-51695046D01*
X26907067Y-51695046D01*
X26713543Y-51743427D01*
X26616781Y-51791808D01*
X26568400Y-51840189D01*
X26520019Y-51936951D01*
X27439257Y-52711046D02*
X27487638Y-52759427D01*
X27536019Y-52711046D01*
X27487638Y-52662665D01*
X27439257Y-52711046D01*
X27536019Y-52711046D01*
X27536019Y-53727046D02*
X27536019Y-53146475D01*
X27536019Y-53436761D02*
X26520019Y-53436761D01*
X26665162Y-53339999D01*
X26761924Y-53243237D01*
X26810305Y-53146475D01*
X29263219Y-36769525D02*
X28247219Y-36769525D01*
X28247219Y-37011430D01*
X28295600Y-37156572D01*
X28392362Y-37253334D01*
X28489124Y-37301715D01*
X28682648Y-37350096D01*
X28827790Y-37350096D01*
X29021314Y-37301715D01*
X29118076Y-37253334D01*
X29214838Y-37156572D01*
X29263219Y-37011430D01*
X29263219Y-36769525D01*
X29263219Y-37785525D02*
X28585886Y-37785525D01*
X28247219Y-37785525D02*
X28295600Y-37737144D01*
X28343981Y-37785525D01*
X28295600Y-37833906D01*
X28247219Y-37785525D01*
X28343981Y-37785525D01*
X29214838Y-38704763D02*
X29263219Y-38608001D01*
X29263219Y-38414478D01*
X29214838Y-38317716D01*
X29166457Y-38269335D01*
X29069695Y-38220954D01*
X28779410Y-38220954D01*
X28682648Y-38269335D01*
X28634267Y-38317716D01*
X28585886Y-38414478D01*
X28585886Y-38608001D01*
X28634267Y-38704763D01*
X29263219Y-39140192D02*
X28247219Y-39140192D01*
X28876171Y-39236954D02*
X29263219Y-39527239D01*
X28585886Y-39527239D02*
X28972933Y-39140192D01*
X29263219Y-39962668D02*
X28585886Y-39962668D01*
X28247219Y-39962668D02*
X28295600Y-39914287D01*
X28343981Y-39962668D01*
X28295600Y-40011049D01*
X28247219Y-39962668D01*
X28343981Y-39962668D01*
X28585886Y-40446478D02*
X29263219Y-40446478D01*
X28682648Y-40446478D02*
X28634267Y-40494859D01*
X28585886Y-40591621D01*
X28585886Y-40736763D01*
X28634267Y-40833525D01*
X28731029Y-40881906D01*
X29263219Y-40881906D01*
X29214838Y-41317335D02*
X29263219Y-41414097D01*
X29263219Y-41607621D01*
X29214838Y-41704382D01*
X29118076Y-41752763D01*
X29069695Y-41752763D01*
X28972933Y-41704382D01*
X28924552Y-41607621D01*
X28924552Y-41462478D01*
X28876171Y-41365716D01*
X28779410Y-41317335D01*
X28731029Y-41317335D01*
X28634267Y-41365716D01*
X28585886Y-41462478D01*
X28585886Y-41607621D01*
X28634267Y-41704382D01*
X29263219Y-42333335D02*
X29214838Y-42236573D01*
X29166457Y-42188192D01*
X29069695Y-42139811D01*
X28779410Y-42139811D01*
X28682648Y-42188192D01*
X28634267Y-42236573D01*
X28585886Y-42333335D01*
X28585886Y-42478477D01*
X28634267Y-42575239D01*
X28682648Y-42623620D01*
X28779410Y-42672001D01*
X29069695Y-42672001D01*
X29166457Y-42623620D01*
X29214838Y-42575239D01*
X29263219Y-42478477D01*
X29263219Y-42333335D01*
X28585886Y-43107430D02*
X29263219Y-43107430D01*
X28682648Y-43107430D02*
X28634267Y-43155811D01*
X28585886Y-43252573D01*
X28585886Y-43397715D01*
X28634267Y-43494477D01*
X28731029Y-43542858D01*
X29263219Y-43542858D01*
X29263219Y-45284572D02*
X29263219Y-44800763D01*
X28247219Y-44800763D01*
X29263219Y-46058667D02*
X28731029Y-46058667D01*
X28634267Y-46010286D01*
X28585886Y-45913524D01*
X28585886Y-45720001D01*
X28634267Y-45623239D01*
X29214838Y-46058667D02*
X29263219Y-45961905D01*
X29263219Y-45720001D01*
X29214838Y-45623239D01*
X29118076Y-45574858D01*
X29021314Y-45574858D01*
X28924552Y-45623239D01*
X28876171Y-45720001D01*
X28876171Y-45961905D01*
X28827790Y-46058667D01*
X29263219Y-46542477D02*
X28247219Y-46542477D01*
X28634267Y-46542477D02*
X28585886Y-46639239D01*
X28585886Y-46832762D01*
X28634267Y-46929524D01*
X28682648Y-46977905D01*
X28779410Y-47026286D01*
X29069695Y-47026286D01*
X29166457Y-46977905D01*
X29214838Y-46929524D01*
X29263219Y-46832762D01*
X29263219Y-46639239D01*
X29214838Y-46542477D01*
X28343981Y-48187429D02*
X28295600Y-48235810D01*
X28247219Y-48332572D01*
X28247219Y-48574476D01*
X28295600Y-48671238D01*
X28343981Y-48719619D01*
X28440743Y-48768000D01*
X28537505Y-48768000D01*
X28682648Y-48719619D01*
X29263219Y-48139048D01*
X29263219Y-48768000D01*
X28247219Y-49396953D02*
X28247219Y-49493714D01*
X28295600Y-49590476D01*
X28343981Y-49638857D01*
X28440743Y-49687238D01*
X28634267Y-49735619D01*
X28876171Y-49735619D01*
X29069695Y-49687238D01*
X29166457Y-49638857D01*
X29214838Y-49590476D01*
X29263219Y-49493714D01*
X29263219Y-49396953D01*
X29214838Y-49300191D01*
X29166457Y-49251810D01*
X29069695Y-49203429D01*
X28876171Y-49155048D01*
X28634267Y-49155048D01*
X28440743Y-49203429D01*
X28343981Y-49251810D01*
X28295600Y-49300191D01*
X28247219Y-49396953D01*
X29263219Y-50703238D02*
X29263219Y-50122667D01*
X29263219Y-50412953D02*
X28247219Y-50412953D01*
X28392362Y-50316191D01*
X28489124Y-50219429D01*
X28537505Y-50122667D01*
X28682648Y-51283810D02*
X28634267Y-51187048D01*
X28585886Y-51138667D01*
X28489124Y-51090286D01*
X28440743Y-51090286D01*
X28343981Y-51138667D01*
X28295600Y-51187048D01*
X28247219Y-51283810D01*
X28247219Y-51477333D01*
X28295600Y-51574095D01*
X28343981Y-51622476D01*
X28440743Y-51670857D01*
X28489124Y-51670857D01*
X28585886Y-51622476D01*
X28634267Y-51574095D01*
X28682648Y-51477333D01*
X28682648Y-51283810D01*
X28731029Y-51187048D01*
X28779410Y-51138667D01*
X28876171Y-51090286D01*
X29069695Y-51090286D01*
X29166457Y-51138667D01*
X29214838Y-51187048D01*
X29263219Y-51283810D01*
X29263219Y-51477333D01*
X29214838Y-51574095D01*
X29166457Y-51622476D01*
X29069695Y-51670857D01*
X28876171Y-51670857D01*
X28779410Y-51622476D01*
X28731029Y-51574095D01*
X28682648Y-51477333D01*
M02*
