M48
;DRILL file {KiCad 4.0.7-e2-6376~58~ubuntu16.04.1} date Fri Aug 31 10:52:18 2018
;FORMAT={-:-/ absolute / inch / decimal}
FMAT,2
INCH,TZ
T1C0.025
T2C0.039
T3C0.040
T4C0.043
T5C0.047
T6C0.070
T7C0.107
T8C0.120
%
G90
G05
M72
T1
X1.5558Y-1.487
X2.125Y-1.7246
T2
X1.325Y-1.995
X1.325Y-2.095
X1.325Y-2.195
T3
X2.72Y-1.55
X2.72Y-1.65
X2.72Y-1.75
X2.72Y-1.85
T4
X1.6416Y-2.28
X1.74Y-2.28
X1.8384Y-2.28
T5
X1.3911Y-1.14
X1.5289Y-1.14
X1.8344Y-1.14
X1.9722Y-1.14
X2.2778Y-1.14
X2.4156Y-1.14
X2.7211Y-1.14
X2.8589Y-1.14
T6
X2.348Y-2.19
X2.535Y-2.19
X2.722Y-2.19
T7
X1.547Y-2.1934
X1.933Y-2.1934
T8
X1.125Y-1.125
X1.125Y-2.375
X3.125Y-1.125
X3.125Y-2.375
T0
M30
