G04 #@! TF.FileFunction,Legend,Top*
%FSLAX46Y46*%
G04 Gerber Fmt 4.6, Leading zero omitted, Abs format (unit mm)*
G04 Created by KiCad (PCBNEW 4.0.7-e2-6376~58~ubuntu16.04.1) date Wed Sep  5 13:54:12 2018*
%MOMM*%
%LPD*%
G01*
G04 APERTURE LIST*
%ADD10C,0.150000*%
%ADD11C,0.203200*%
%ADD12C,0.381000*%
%ADD13C,0.127000*%
%ADD14C,0.120000*%
%ADD15C,0.254000*%
%ADD16C,0.114300*%
%ADD17C,0.101600*%
G04 APERTURE END LIST*
D10*
D11*
X34755667Y-33890857D02*
X34707286Y-33939238D01*
X34562143Y-33987619D01*
X34465381Y-33987619D01*
X34320239Y-33939238D01*
X34223477Y-33842476D01*
X34175096Y-33745714D01*
X34126715Y-33552190D01*
X34126715Y-33407048D01*
X34175096Y-33213524D01*
X34223477Y-33116762D01*
X34320239Y-33020000D01*
X34465381Y-32971619D01*
X34562143Y-32971619D01*
X34707286Y-33020000D01*
X34755667Y-33068381D01*
X35045953Y-32971619D02*
X35626524Y-32971619D01*
X35336239Y-33987619D02*
X35336239Y-32971619D01*
X36449000Y-33987619D02*
X35965191Y-33987619D01*
X35965191Y-32971619D01*
X37561762Y-33455429D02*
X37900428Y-33455429D01*
X38045571Y-33987619D02*
X37561762Y-33987619D01*
X37561762Y-32971619D01*
X38045571Y-32971619D01*
X38384238Y-32971619D02*
X39061571Y-33987619D01*
X39061571Y-32971619D02*
X38384238Y-33987619D01*
X39303476Y-32971619D02*
X39884047Y-32971619D01*
X39593762Y-33987619D02*
X39593762Y-32971619D01*
X26857476Y-51162857D02*
X26809095Y-51211238D01*
X26663952Y-51259619D01*
X26567190Y-51259619D01*
X26422048Y-51211238D01*
X26325286Y-51114476D01*
X26276905Y-51017714D01*
X26228524Y-50824190D01*
X26228524Y-50679048D01*
X26276905Y-50485524D01*
X26325286Y-50388762D01*
X26422048Y-50292000D01*
X26567190Y-50243619D01*
X26663952Y-50243619D01*
X26809095Y-50292000D01*
X26857476Y-50340381D01*
X27147762Y-50243619D02*
X27728333Y-50243619D01*
X27438048Y-51259619D02*
X27438048Y-50243619D01*
X28550809Y-51259619D02*
X28067000Y-51259619D01*
X28067000Y-50243619D01*
X29663571Y-50727429D02*
X30002237Y-50727429D01*
X30147380Y-51259619D02*
X29663571Y-51259619D01*
X29663571Y-50243619D01*
X30147380Y-50243619D01*
X30486047Y-50243619D02*
X31163380Y-51259619D01*
X31163380Y-50243619D02*
X30486047Y-51259619D01*
X31405285Y-50243619D02*
X31985856Y-50243619D01*
X31695571Y-51259619D02*
X31695571Y-50243619D01*
X26730476Y-56242857D02*
X26682095Y-56291238D01*
X26536952Y-56339619D01*
X26440190Y-56339619D01*
X26295048Y-56291238D01*
X26198286Y-56194476D01*
X26149905Y-56097714D01*
X26101524Y-55904190D01*
X26101524Y-55759048D01*
X26149905Y-55565524D01*
X26198286Y-55468762D01*
X26295048Y-55372000D01*
X26440190Y-55323619D01*
X26536952Y-55323619D01*
X26682095Y-55372000D01*
X26730476Y-55420381D01*
X27020762Y-55323619D02*
X27601333Y-55323619D01*
X27311048Y-56339619D02*
X27311048Y-55323619D01*
X28423809Y-56339619D02*
X27940000Y-56339619D01*
X27940000Y-55323619D01*
X29536571Y-56339619D02*
X29536571Y-55323619D01*
X29923618Y-55323619D01*
X30020380Y-55372000D01*
X30068761Y-55420381D01*
X30117142Y-55517143D01*
X30117142Y-55662286D01*
X30068761Y-55759048D01*
X30020380Y-55807429D01*
X29923618Y-55855810D01*
X29536571Y-55855810D01*
X30746095Y-55323619D02*
X30939618Y-55323619D01*
X31036380Y-55372000D01*
X31133142Y-55468762D01*
X31181523Y-55662286D01*
X31181523Y-56000952D01*
X31133142Y-56194476D01*
X31036380Y-56291238D01*
X30939618Y-56339619D01*
X30746095Y-56339619D01*
X30649333Y-56291238D01*
X30552571Y-56194476D01*
X30504190Y-56000952D01*
X30504190Y-55662286D01*
X30552571Y-55468762D01*
X30649333Y-55372000D01*
X30746095Y-55323619D01*
X31471809Y-55323619D02*
X32052380Y-55323619D01*
X31762095Y-56339619D02*
X31762095Y-55323619D01*
X46965809Y-33987619D02*
X46627143Y-33503810D01*
X46385238Y-33987619D02*
X46385238Y-32971619D01*
X46772285Y-32971619D01*
X46869047Y-33020000D01*
X46917428Y-33068381D01*
X46965809Y-33165143D01*
X46965809Y-33310286D01*
X46917428Y-33407048D01*
X46869047Y-33455429D01*
X46772285Y-33503810D01*
X46385238Y-33503810D01*
X47885047Y-33987619D02*
X47401238Y-33987619D01*
X47401238Y-32971619D01*
X48223714Y-33987619D02*
X48223714Y-32971619D01*
X48707524Y-33987619D02*
X48707524Y-32971619D01*
X49046190Y-33697333D01*
X49384857Y-32971619D01*
X49384857Y-33987619D01*
X49868667Y-33987619D02*
X49868667Y-32971619D01*
X50207334Y-32971619D02*
X50787905Y-32971619D01*
X50497620Y-33987619D02*
X50497620Y-32971619D01*
X62205810Y-51513619D02*
X62399333Y-51513619D01*
X62496095Y-51562000D01*
X62592857Y-51658762D01*
X62641238Y-51852286D01*
X62641238Y-52190952D01*
X62592857Y-52384476D01*
X62496095Y-52481238D01*
X62399333Y-52529619D01*
X62205810Y-52529619D01*
X62109048Y-52481238D01*
X62012286Y-52384476D01*
X61963905Y-52190952D01*
X61963905Y-51852286D01*
X62012286Y-51658762D01*
X62109048Y-51562000D01*
X62205810Y-51513619D01*
X63076667Y-52529619D02*
X63076667Y-51513619D01*
X63657238Y-52529619D01*
X63657238Y-51513619D01*
X64866762Y-51465238D02*
X63995905Y-52771524D01*
X65398953Y-51513619D02*
X65592476Y-51513619D01*
X65689238Y-51562000D01*
X65786000Y-51658762D01*
X65834381Y-51852286D01*
X65834381Y-52190952D01*
X65786000Y-52384476D01*
X65689238Y-52481238D01*
X65592476Y-52529619D01*
X65398953Y-52529619D01*
X65302191Y-52481238D01*
X65205429Y-52384476D01*
X65157048Y-52190952D01*
X65157048Y-51852286D01*
X65205429Y-51658762D01*
X65302191Y-51562000D01*
X65398953Y-51513619D01*
X66608476Y-51997429D02*
X66269810Y-51997429D01*
X66269810Y-52529619D02*
X66269810Y-51513619D01*
X66753619Y-51513619D01*
X67479333Y-51997429D02*
X67140667Y-51997429D01*
X67140667Y-52529619D02*
X67140667Y-51513619D01*
X67624476Y-51513619D01*
X40252953Y-52608238D02*
X40398096Y-52656619D01*
X40640000Y-52656619D01*
X40736762Y-52608238D01*
X40785143Y-52559857D01*
X40833524Y-52463095D01*
X40833524Y-52366333D01*
X40785143Y-52269571D01*
X40736762Y-52221190D01*
X40640000Y-52172810D01*
X40446477Y-52124429D01*
X40349715Y-52076048D01*
X40301334Y-52027667D01*
X40252953Y-51930905D01*
X40252953Y-51834143D01*
X40301334Y-51737381D01*
X40349715Y-51689000D01*
X40446477Y-51640619D01*
X40688381Y-51640619D01*
X40833524Y-51689000D01*
X41268953Y-52656619D02*
X41268953Y-51640619D01*
X41656000Y-51640619D01*
X41752762Y-51689000D01*
X41801143Y-51737381D01*
X41849524Y-51834143D01*
X41849524Y-51979286D01*
X41801143Y-52076048D01*
X41752762Y-52124429D01*
X41656000Y-52172810D01*
X41268953Y-52172810D01*
X42284953Y-52124429D02*
X42623619Y-52124429D01*
X42768762Y-52656619D02*
X42284953Y-52656619D01*
X42284953Y-51640619D01*
X42768762Y-51640619D01*
X43204191Y-52124429D02*
X43542857Y-52124429D01*
X43688000Y-52656619D02*
X43204191Y-52656619D01*
X43204191Y-51640619D01*
X43688000Y-51640619D01*
X44123429Y-52656619D02*
X44123429Y-51640619D01*
X44365334Y-51640619D01*
X44510476Y-51689000D01*
X44607238Y-51785762D01*
X44655619Y-51882524D01*
X44704000Y-52076048D01*
X44704000Y-52221190D01*
X44655619Y-52414714D01*
X44607238Y-52511476D01*
X44510476Y-52608238D01*
X44365334Y-52656619D01*
X44123429Y-52656619D01*
X45865143Y-52366333D02*
X46348952Y-52366333D01*
X45768381Y-52656619D02*
X46107048Y-51640619D01*
X46445714Y-52656619D01*
X46784381Y-52656619D02*
X46784381Y-51640619D01*
X47026286Y-51640619D01*
X47171428Y-51689000D01*
X47268190Y-51785762D01*
X47316571Y-51882524D01*
X47364952Y-52076048D01*
X47364952Y-52221190D01*
X47316571Y-52414714D01*
X47268190Y-52511476D01*
X47171428Y-52608238D01*
X47026286Y-52656619D01*
X46784381Y-52656619D01*
X48090666Y-51640619D02*
X48090666Y-52366333D01*
X48042286Y-52511476D01*
X47945524Y-52608238D01*
X47800381Y-52656619D01*
X47703619Y-52656619D01*
X56381952Y-33987619D02*
X55898143Y-33987619D01*
X55898143Y-32971619D01*
X56914143Y-32971619D02*
X57107666Y-32971619D01*
X57204428Y-33020000D01*
X57301190Y-33116762D01*
X57349571Y-33310286D01*
X57349571Y-33648952D01*
X57301190Y-33842476D01*
X57204428Y-33939238D01*
X57107666Y-33987619D01*
X56914143Y-33987619D01*
X56817381Y-33939238D01*
X56720619Y-33842476D01*
X56672238Y-33648952D01*
X56672238Y-33310286D01*
X56720619Y-33116762D01*
X56817381Y-33020000D01*
X56914143Y-32971619D01*
X57736619Y-33697333D02*
X58220428Y-33697333D01*
X57639857Y-33987619D02*
X57978524Y-32971619D01*
X58317190Y-33987619D01*
X58655857Y-33987619D02*
X58655857Y-32971619D01*
X58897762Y-32971619D01*
X59042904Y-33020000D01*
X59139666Y-33116762D01*
X59188047Y-33213524D01*
X59236428Y-33407048D01*
X59236428Y-33552190D01*
X59188047Y-33745714D01*
X59139666Y-33842476D01*
X59042904Y-33939238D01*
X58897762Y-33987619D01*
X58655857Y-33987619D01*
X60445952Y-33600571D02*
X61220047Y-33600571D01*
X60832999Y-33987619D02*
X60832999Y-33213524D01*
X61752238Y-33939238D02*
X61752238Y-33987619D01*
X61703857Y-34084381D01*
X61655476Y-34132762D01*
X62961762Y-33600571D02*
X63735857Y-33600571D01*
X66947143Y-33020000D02*
X66850381Y-32971619D01*
X66705238Y-32971619D01*
X66560096Y-33020000D01*
X66463334Y-33116762D01*
X66414953Y-33213524D01*
X66366572Y-33407048D01*
X66366572Y-33552190D01*
X66414953Y-33745714D01*
X66463334Y-33842476D01*
X66560096Y-33939238D01*
X66705238Y-33987619D01*
X66802000Y-33987619D01*
X66947143Y-33939238D01*
X66995524Y-33890857D01*
X66995524Y-33552190D01*
X66802000Y-33552190D01*
X67430953Y-33987619D02*
X67430953Y-32971619D01*
X68011524Y-33987619D01*
X68011524Y-32971619D01*
X68495334Y-33987619D02*
X68495334Y-32971619D01*
X68737239Y-32971619D01*
X68882381Y-33020000D01*
X68979143Y-33116762D01*
X69027524Y-33213524D01*
X69075905Y-33407048D01*
X69075905Y-33552190D01*
X69027524Y-33745714D01*
X68979143Y-33842476D01*
X68882381Y-33939238D01*
X68737239Y-33987619D01*
X68495334Y-33987619D01*
X69559715Y-33939238D02*
X69559715Y-33987619D01*
X69511334Y-34084381D01*
X69462953Y-34132762D01*
X71253048Y-32971619D02*
X70769239Y-32971619D01*
X70720858Y-33455429D01*
X70769239Y-33407048D01*
X70866001Y-33358667D01*
X71107905Y-33358667D01*
X71204667Y-33407048D01*
X71253048Y-33455429D01*
X71301429Y-33552190D01*
X71301429Y-33794095D01*
X71253048Y-33890857D01*
X71204667Y-33939238D01*
X71107905Y-33987619D01*
X70866001Y-33987619D01*
X70769239Y-33939238D01*
X70720858Y-33890857D01*
X71736858Y-33600571D02*
X72510953Y-33600571D01*
X73430191Y-33310286D02*
X73430191Y-33987619D01*
X73188287Y-32923238D02*
X72946382Y-33648952D01*
X73575334Y-33648952D01*
X74155906Y-32971619D02*
X74252667Y-32971619D01*
X74349429Y-33020000D01*
X74397810Y-33068381D01*
X74446191Y-33165143D01*
X74494572Y-33358667D01*
X74494572Y-33600571D01*
X74446191Y-33794095D01*
X74397810Y-33890857D01*
X74349429Y-33939238D01*
X74252667Y-33987619D01*
X74155906Y-33987619D01*
X74059144Y-33939238D01*
X74010763Y-33890857D01*
X73962382Y-33794095D01*
X73914001Y-33600571D01*
X73914001Y-33358667D01*
X73962382Y-33165143D01*
X74010763Y-33068381D01*
X74059144Y-33020000D01*
X74155906Y-32971619D01*
X74784858Y-32971619D02*
X75123525Y-33987619D01*
X75462191Y-32971619D01*
D12*
X37084000Y-53340000D02*
X37084000Y-63246000D01*
X37084000Y-63246000D02*
X51308000Y-63246000D01*
X37846000Y-53340000D02*
X37084000Y-53340000D01*
X51308000Y-53340000D02*
X51308000Y-63246000D01*
X50546000Y-53340000D02*
X51308000Y-53340000D01*
X50546000Y-53340000D02*
X37846000Y-53340000D01*
X49276000Y-63246000D02*
X39116000Y-63246000D01*
D13*
X60071000Y-48514000D02*
X60071000Y-45466000D01*
X60071000Y-45466000D02*
X60833000Y-45466000D01*
X60833000Y-45466000D02*
X60833000Y-48514000D01*
X60833000Y-48514000D02*
X60071000Y-48514000D01*
D12*
X54737000Y-53086000D02*
X74041000Y-53086000D01*
X74041000Y-53086000D02*
X74041000Y-63246000D01*
X74041000Y-63246000D02*
X54737000Y-63246000D01*
X54737000Y-63246000D02*
X54737000Y-53086000D01*
D13*
X41656000Y-38227000D02*
X42164000Y-37465000D01*
X41656000Y-40005000D02*
X41656000Y-37401500D01*
X41656000Y-37401500D02*
X43180000Y-37401500D01*
X43180000Y-37401500D02*
X43180000Y-40005000D01*
X43180000Y-40005000D02*
X41656000Y-40005000D01*
D12*
X67564000Y-48260000D02*
X80518000Y-48260000D01*
X67564000Y-38049200D02*
X80518000Y-38100000D01*
X67564000Y-48260000D02*
X67564000Y-38100000D01*
X80518000Y-48260000D02*
X80518000Y-38100000D01*
D14*
X30615000Y-35007000D02*
X31615000Y-35007000D01*
X31615000Y-36367000D02*
X30615000Y-36367000D01*
X31615000Y-46400000D02*
X30615000Y-46400000D01*
X30615000Y-45040000D02*
X31615000Y-45040000D01*
X39542000Y-46363000D02*
X39542000Y-47363000D01*
X38182000Y-47363000D02*
X38182000Y-46363000D01*
X42500000Y-47363000D02*
X42500000Y-46363000D01*
X43860000Y-46363000D02*
X43860000Y-47363000D01*
X48088000Y-39870000D02*
X48088000Y-38870000D01*
X49448000Y-38870000D02*
X49448000Y-39870000D01*
X49448000Y-46490000D02*
X49448000Y-47490000D01*
X48088000Y-47490000D02*
X48088000Y-46490000D01*
X53893000Y-38870000D02*
X53893000Y-39870000D01*
X52533000Y-39870000D02*
X52533000Y-38870000D01*
X56978000Y-39870000D02*
X56978000Y-38870000D01*
X58338000Y-38870000D02*
X58338000Y-39870000D01*
D11*
X53975000Y-49276000D02*
X52451000Y-49276000D01*
D14*
X52533000Y-47490000D02*
X52533000Y-46490000D01*
X53893000Y-46490000D02*
X53893000Y-47490000D01*
D11*
X61341000Y-37084000D02*
X62865000Y-37084000D01*
D14*
X62783000Y-38870000D02*
X62783000Y-39870000D01*
X61423000Y-39870000D02*
X61423000Y-38870000D01*
D13*
X34544000Y-42418000D02*
X34544000Y-39370000D01*
X34544000Y-39370000D02*
X35306000Y-39370000D01*
X35306000Y-39370000D02*
X35306000Y-42418000D01*
X35306000Y-42418000D02*
X34544000Y-42418000D01*
D15*
X32385000Y-49403000D02*
X32385000Y-57023000D01*
X32385000Y-57023000D02*
X34925000Y-57023000D01*
X34925000Y-57023000D02*
X34925000Y-49403000D01*
X34925000Y-49403000D02*
X32385000Y-49403000D01*
D12*
X33020000Y-25527000D02*
X33020000Y-32385000D01*
X33020000Y-32385000D02*
X41148000Y-32385000D01*
X41148000Y-32385000D02*
X41148000Y-25527000D01*
X41148000Y-25527000D02*
X33020000Y-25527000D01*
X44280700Y-25527000D02*
X44280700Y-32385000D01*
X44280700Y-32385000D02*
X52408700Y-32385000D01*
X52408700Y-32385000D02*
X52408700Y-25527000D01*
X52408700Y-25527000D02*
X44280700Y-25527000D01*
X55541300Y-25527000D02*
X55541300Y-32385000D01*
X55541300Y-32385000D02*
X63669300Y-32385000D01*
X63669300Y-32385000D02*
X63669300Y-25527000D01*
X63669300Y-25527000D02*
X55541300Y-25527000D01*
X66802000Y-25527000D02*
X66802000Y-32385000D01*
X66802000Y-32385000D02*
X74930000Y-32385000D01*
X74930000Y-32385000D02*
X74930000Y-25527000D01*
X74930000Y-25527000D02*
X66802000Y-25527000D01*
D11*
X52783619Y-61945762D02*
X52299810Y-62284428D01*
X52783619Y-62526333D02*
X51767619Y-62526333D01*
X51767619Y-62139286D01*
X51816000Y-62042524D01*
X51864381Y-61994143D01*
X51961143Y-61945762D01*
X52106286Y-61945762D01*
X52203048Y-61994143D01*
X52251429Y-62042524D01*
X52299810Y-62139286D01*
X52299810Y-62526333D01*
X51767619Y-61655476D02*
X52783619Y-61316809D01*
X51767619Y-60978143D01*
X52783619Y-60107286D02*
X52783619Y-60687857D01*
X52783619Y-60397571D02*
X51767619Y-60397571D01*
X51912762Y-60494333D01*
X52009524Y-60591095D01*
X52057905Y-60687857D01*
D16*
X58444190Y-47033543D02*
X58420000Y-47077086D01*
X58371619Y-47120629D01*
X58299048Y-47185943D01*
X58274857Y-47229486D01*
X58274857Y-47273029D01*
X58395810Y-47251257D02*
X58371619Y-47294800D01*
X58323238Y-47338343D01*
X58226476Y-47360114D01*
X58057143Y-47360114D01*
X57960381Y-47338343D01*
X57912000Y-47294800D01*
X57887810Y-47251257D01*
X57887810Y-47164171D01*
X57912000Y-47120629D01*
X57960381Y-47077086D01*
X58057143Y-47055314D01*
X58226476Y-47055314D01*
X58323238Y-47077086D01*
X58371619Y-47120629D01*
X58395810Y-47164171D01*
X58395810Y-47251257D01*
X58395810Y-46619886D02*
X58395810Y-46881143D01*
X58395810Y-46750515D02*
X57887810Y-46750515D01*
X57960381Y-46794058D01*
X58008762Y-46837600D01*
X58032952Y-46881143D01*
D11*
X75468238Y-62568666D02*
X75516619Y-62423523D01*
X75516619Y-62181619D01*
X75468238Y-62084857D01*
X75419857Y-62036476D01*
X75323095Y-61988095D01*
X75226333Y-61988095D01*
X75129571Y-62036476D01*
X75081190Y-62084857D01*
X75032810Y-62181619D01*
X74984429Y-62375142D01*
X74936048Y-62471904D01*
X74887667Y-62520285D01*
X74790905Y-62568666D01*
X74694143Y-62568666D01*
X74597381Y-62520285D01*
X74549000Y-62471904D01*
X74500619Y-62375142D01*
X74500619Y-62133238D01*
X74549000Y-61988095D01*
X74500619Y-61649428D02*
X75516619Y-61407523D01*
X74790905Y-61214000D01*
X75516619Y-61020476D01*
X74500619Y-60778571D01*
X75516619Y-59859333D02*
X75516619Y-60439904D01*
X75516619Y-60149618D02*
X74500619Y-60149618D01*
X74645762Y-60246380D01*
X74742524Y-60343142D01*
X74790905Y-60439904D01*
D16*
X42069657Y-36424810D02*
X42069657Y-36836048D01*
X42091429Y-36884429D01*
X42113200Y-36908619D01*
X42156743Y-36932810D01*
X42243829Y-36932810D01*
X42287371Y-36908619D01*
X42309143Y-36884429D01*
X42330914Y-36836048D01*
X42330914Y-36424810D01*
X42788114Y-36932810D02*
X42526857Y-36932810D01*
X42657485Y-36932810D02*
X42657485Y-36424810D01*
X42613942Y-36497381D01*
X42570400Y-36545762D01*
X42526857Y-36569952D01*
D11*
X65483619Y-43954095D02*
X66306095Y-43954095D01*
X66402857Y-43905714D01*
X66451238Y-43857333D01*
X66499619Y-43760571D01*
X66499619Y-43567048D01*
X66451238Y-43470286D01*
X66402857Y-43421905D01*
X66306095Y-43373524D01*
X65483619Y-43373524D01*
X65580381Y-42938095D02*
X65532000Y-42889714D01*
X65483619Y-42792952D01*
X65483619Y-42551048D01*
X65532000Y-42454286D01*
X65580381Y-42405905D01*
X65677143Y-42357524D01*
X65773905Y-42357524D01*
X65919048Y-42405905D01*
X66499619Y-42986476D01*
X66499619Y-42357524D01*
X78869419Y-47706037D02*
X77853419Y-47706037D01*
X77853419Y-47318990D01*
X77901800Y-47222228D01*
X77950181Y-47173847D01*
X78046943Y-47125466D01*
X78192086Y-47125466D01*
X78288848Y-47173847D01*
X78337229Y-47222228D01*
X78385610Y-47318990D01*
X78385610Y-47706037D01*
X77853419Y-46496513D02*
X77853419Y-46302990D01*
X77901800Y-46206228D01*
X77998562Y-46109466D01*
X78192086Y-46061085D01*
X78530752Y-46061085D01*
X78724276Y-46109466D01*
X78821038Y-46206228D01*
X78869419Y-46302990D01*
X78869419Y-46496513D01*
X78821038Y-46593275D01*
X78724276Y-46690037D01*
X78530752Y-46738418D01*
X78192086Y-46738418D01*
X77998562Y-46690037D01*
X77901800Y-46593275D01*
X77853419Y-46496513D01*
X78869419Y-45141847D02*
X78869419Y-45625656D01*
X77853419Y-45625656D01*
X77853419Y-44609656D02*
X77853419Y-44416133D01*
X77901800Y-44319371D01*
X77998562Y-44222609D01*
X78192086Y-44174228D01*
X78530752Y-44174228D01*
X78724276Y-44222609D01*
X78821038Y-44319371D01*
X78869419Y-44416133D01*
X78869419Y-44609656D01*
X78821038Y-44706418D01*
X78724276Y-44803180D01*
X78530752Y-44851561D01*
X78192086Y-44851561D01*
X77998562Y-44803180D01*
X77901800Y-44706418D01*
X77853419Y-44609656D01*
X78869419Y-43254990D02*
X78869419Y-43738799D01*
X77853419Y-43738799D01*
X77853419Y-42916323D02*
X78675895Y-42916323D01*
X78772657Y-42867942D01*
X78821038Y-42819561D01*
X78869419Y-42722799D01*
X78869419Y-42529276D01*
X78821038Y-42432514D01*
X78772657Y-42384133D01*
X78675895Y-42335752D01*
X77853419Y-42335752D01*
X78966181Y-42093847D02*
X78966181Y-41319752D01*
X77853419Y-41174609D02*
X77853419Y-40545657D01*
X78240467Y-40884323D01*
X78240467Y-40739181D01*
X78288848Y-40642419D01*
X78337229Y-40594038D01*
X78433990Y-40545657D01*
X78675895Y-40545657D01*
X78772657Y-40594038D01*
X78821038Y-40642419D01*
X78869419Y-40739181D01*
X78869419Y-41029466D01*
X78821038Y-41126228D01*
X78772657Y-41174609D01*
X77853419Y-40255371D02*
X78869419Y-39916704D01*
X77853419Y-39578038D01*
X77853419Y-39336133D02*
X77853419Y-38707181D01*
X78240467Y-39045847D01*
X78240467Y-38900705D01*
X78288848Y-38803943D01*
X78337229Y-38755562D01*
X78433990Y-38707181D01*
X78675895Y-38707181D01*
X78772657Y-38755562D01*
X78821038Y-38803943D01*
X78869419Y-38900705D01*
X78869419Y-39190990D01*
X78821038Y-39287752D01*
X78772657Y-39336133D01*
D10*
X70323295Y-38720781D02*
X70656628Y-39720781D01*
X70989962Y-38720781D01*
X71513771Y-38720781D02*
X71704248Y-38720781D01*
X71799486Y-38768400D01*
X71894724Y-38863638D01*
X71942343Y-39054114D01*
X71942343Y-39387448D01*
X71894724Y-39577924D01*
X71799486Y-39673162D01*
X71704248Y-39720781D01*
X71513771Y-39720781D01*
X71418533Y-39673162D01*
X71323295Y-39577924D01*
X71275676Y-39387448D01*
X71275676Y-39054114D01*
X71323295Y-38863638D01*
X71418533Y-38768400D01*
X71513771Y-38720781D01*
X72370914Y-38720781D02*
X72370914Y-39530305D01*
X72418533Y-39625543D01*
X72466152Y-39673162D01*
X72561390Y-39720781D01*
X72751867Y-39720781D01*
X72847105Y-39673162D01*
X72894724Y-39625543D01*
X72942343Y-39530305D01*
X72942343Y-38720781D01*
X73275676Y-38720781D02*
X73847105Y-38720781D01*
X73561390Y-39720781D02*
X73561390Y-38720781D01*
X70967696Y-41359200D02*
X70872458Y-41311581D01*
X70729601Y-41311581D01*
X70586743Y-41359200D01*
X70491505Y-41454438D01*
X70443886Y-41549676D01*
X70396267Y-41740152D01*
X70396267Y-41883010D01*
X70443886Y-42073486D01*
X70491505Y-42168724D01*
X70586743Y-42263962D01*
X70729601Y-42311581D01*
X70824839Y-42311581D01*
X70967696Y-42263962D01*
X71015315Y-42216343D01*
X71015315Y-41883010D01*
X70824839Y-41883010D01*
X71443886Y-42311581D02*
X71443886Y-41311581D01*
X72015315Y-42311581D01*
X72015315Y-41311581D01*
X72491505Y-42311581D02*
X72491505Y-41311581D01*
X72729600Y-41311581D01*
X72872458Y-41359200D01*
X72967696Y-41454438D01*
X73015315Y-41549676D01*
X73062934Y-41740152D01*
X73062934Y-41883010D01*
X73015315Y-42073486D01*
X72967696Y-42168724D01*
X72872458Y-42263962D01*
X72729600Y-42311581D01*
X72491505Y-42311581D01*
X70380362Y-43749981D02*
X70713695Y-44749981D01*
X71047029Y-43749981D01*
X71380362Y-44749981D02*
X71380362Y-43749981D01*
X71856552Y-44749981D02*
X71856552Y-43749981D01*
X72427981Y-44749981D01*
X72427981Y-43749981D01*
X70455067Y-47140762D02*
X70597924Y-47188381D01*
X70836020Y-47188381D01*
X70931258Y-47140762D01*
X70978877Y-47093143D01*
X71026496Y-46997905D01*
X71026496Y-46902667D01*
X70978877Y-46807429D01*
X70931258Y-46759810D01*
X70836020Y-46712190D01*
X70645543Y-46664571D01*
X70550305Y-46616952D01*
X70502686Y-46569333D01*
X70455067Y-46474095D01*
X70455067Y-46378857D01*
X70502686Y-46283619D01*
X70550305Y-46236000D01*
X70645543Y-46188381D01*
X70883639Y-46188381D01*
X71026496Y-46236000D01*
X71455067Y-47188381D02*
X71455067Y-46188381D01*
X71455067Y-46664571D02*
X72026496Y-46664571D01*
X72026496Y-47188381D02*
X72026496Y-46188381D01*
X72502686Y-47188381D02*
X72502686Y-46188381D01*
X72740781Y-46188381D01*
X72883639Y-46236000D01*
X72978877Y-46331238D01*
X73026496Y-46426476D01*
X73074115Y-46616952D01*
X73074115Y-46759810D01*
X73026496Y-46950286D01*
X72978877Y-47045524D01*
X72883639Y-47140762D01*
X72740781Y-47188381D01*
X72502686Y-47188381D01*
X73502686Y-47188381D02*
X73502686Y-46188381D01*
X74074115Y-47188381D01*
X74074115Y-46188381D01*
X70264591Y-46016000D02*
X74312210Y-46016000D01*
D17*
X33884810Y-35771667D02*
X33642905Y-35941000D01*
X33884810Y-36061953D02*
X33376810Y-36061953D01*
X33376810Y-35868429D01*
X33401000Y-35820048D01*
X33425190Y-35795857D01*
X33473571Y-35771667D01*
X33546143Y-35771667D01*
X33594524Y-35795857D01*
X33618714Y-35820048D01*
X33642905Y-35868429D01*
X33642905Y-36061953D01*
X33546143Y-35336238D02*
X33884810Y-35336238D01*
X33352619Y-35457191D02*
X33715476Y-35578143D01*
X33715476Y-35263667D01*
X30570714Y-34392810D02*
X30280428Y-34392810D01*
X30425571Y-34392810D02*
X30425571Y-33884810D01*
X30377190Y-33957381D01*
X30328809Y-34005762D01*
X30280428Y-34029952D01*
X30764238Y-33933190D02*
X30788428Y-33909000D01*
X30836809Y-33884810D01*
X30957762Y-33884810D01*
X31006143Y-33909000D01*
X31030333Y-33933190D01*
X31054524Y-33981571D01*
X31054524Y-34029952D01*
X31030333Y-34102524D01*
X30740047Y-34392810D01*
X31054524Y-34392810D01*
X31489953Y-34054143D02*
X31489953Y-34392810D01*
X31369000Y-33860619D02*
X31248048Y-34223476D01*
X31562524Y-34223476D01*
X31756048Y-34392810D02*
X31756048Y-33884810D01*
X31804429Y-34199286D02*
X31949572Y-34392810D01*
X31949572Y-34054143D02*
X31756048Y-34247667D01*
X28804810Y-45804667D02*
X28562905Y-45974000D01*
X28804810Y-46094953D02*
X28296810Y-46094953D01*
X28296810Y-45901429D01*
X28321000Y-45853048D01*
X28345190Y-45828857D01*
X28393571Y-45804667D01*
X28466143Y-45804667D01*
X28514524Y-45828857D01*
X28538714Y-45853048D01*
X28562905Y-45901429D01*
X28562905Y-46094953D01*
X28345190Y-45611143D02*
X28321000Y-45586953D01*
X28296810Y-45538572D01*
X28296810Y-45417619D01*
X28321000Y-45369238D01*
X28345190Y-45345048D01*
X28393571Y-45320857D01*
X28441952Y-45320857D01*
X28514524Y-45345048D01*
X28804810Y-45635334D01*
X28804810Y-45320857D01*
X30328809Y-47219810D02*
X30425571Y-47219810D01*
X30473952Y-47195619D01*
X30498142Y-47171429D01*
X30546523Y-47098857D01*
X30570714Y-47002095D01*
X30570714Y-46808571D01*
X30546523Y-46760190D01*
X30522333Y-46736000D01*
X30473952Y-46711810D01*
X30377190Y-46711810D01*
X30328809Y-46736000D01*
X30304618Y-46760190D01*
X30280428Y-46808571D01*
X30280428Y-46929524D01*
X30304618Y-46977905D01*
X30328809Y-47002095D01*
X30377190Y-47026286D01*
X30473952Y-47026286D01*
X30522333Y-47002095D01*
X30546523Y-46977905D01*
X30570714Y-46929524D01*
X30740047Y-46711810D02*
X31078714Y-46711810D01*
X30861000Y-47219810D01*
X31489953Y-46711810D02*
X31393191Y-46711810D01*
X31344810Y-46736000D01*
X31320619Y-46760190D01*
X31272238Y-46832762D01*
X31248048Y-46929524D01*
X31248048Y-47123048D01*
X31272238Y-47171429D01*
X31296429Y-47195619D01*
X31344810Y-47219810D01*
X31441572Y-47219810D01*
X31489953Y-47195619D01*
X31514143Y-47171429D01*
X31538334Y-47123048D01*
X31538334Y-47002095D01*
X31514143Y-46953714D01*
X31489953Y-46929524D01*
X31441572Y-46905333D01*
X31344810Y-46905333D01*
X31296429Y-46929524D01*
X31272238Y-46953714D01*
X31248048Y-47002095D01*
X31756048Y-47219810D02*
X31756048Y-46711810D01*
X31804429Y-47026286D02*
X31949572Y-47219810D01*
X31949572Y-46881143D02*
X31756048Y-47074667D01*
X38777333Y-44552810D02*
X38608000Y-44310905D01*
X38487047Y-44552810D02*
X38487047Y-44044810D01*
X38680571Y-44044810D01*
X38728952Y-44069000D01*
X38753143Y-44093190D01*
X38777333Y-44141571D01*
X38777333Y-44214143D01*
X38753143Y-44262524D01*
X38728952Y-44286714D01*
X38680571Y-44310905D01*
X38487047Y-44310905D01*
X39236952Y-44044810D02*
X38995047Y-44044810D01*
X38970857Y-44286714D01*
X38995047Y-44262524D01*
X39043428Y-44238333D01*
X39164381Y-44238333D01*
X39212762Y-44262524D01*
X39236952Y-44286714D01*
X39261143Y-44335095D01*
X39261143Y-44456048D01*
X39236952Y-44504429D01*
X39212762Y-44528619D01*
X39164381Y-44552810D01*
X39043428Y-44552810D01*
X38995047Y-44528619D01*
X38970857Y-44504429D01*
X37821810Y-47407286D02*
X37821810Y-47697572D01*
X37821810Y-47552429D02*
X37313810Y-47552429D01*
X37386381Y-47600810D01*
X37434762Y-47649191D01*
X37458952Y-47697572D01*
X37531524Y-47117000D02*
X37507333Y-47165381D01*
X37483143Y-47189572D01*
X37434762Y-47213762D01*
X37410571Y-47213762D01*
X37362190Y-47189572D01*
X37338000Y-47165381D01*
X37313810Y-47117000D01*
X37313810Y-47020238D01*
X37338000Y-46971857D01*
X37362190Y-46947667D01*
X37410571Y-46923476D01*
X37434762Y-46923476D01*
X37483143Y-46947667D01*
X37507333Y-46971857D01*
X37531524Y-47020238D01*
X37531524Y-47117000D01*
X37555714Y-47165381D01*
X37579905Y-47189572D01*
X37628286Y-47213762D01*
X37725048Y-47213762D01*
X37773429Y-47189572D01*
X37797619Y-47165381D01*
X37821810Y-47117000D01*
X37821810Y-47020238D01*
X37797619Y-46971857D01*
X37773429Y-46947667D01*
X37725048Y-46923476D01*
X37628286Y-46923476D01*
X37579905Y-46947667D01*
X37555714Y-46971857D01*
X37531524Y-47020238D01*
X37362190Y-46729952D02*
X37338000Y-46705762D01*
X37313810Y-46657381D01*
X37313810Y-46536428D01*
X37338000Y-46488047D01*
X37362190Y-46463857D01*
X37410571Y-46439666D01*
X37458952Y-46439666D01*
X37531524Y-46463857D01*
X37821810Y-46754143D01*
X37821810Y-46439666D01*
X37821810Y-46221952D02*
X37313810Y-46221952D01*
X37628286Y-46173571D02*
X37821810Y-46028428D01*
X37483143Y-46028428D02*
X37676667Y-46221952D01*
X43095333Y-44552810D02*
X42926000Y-44310905D01*
X42805047Y-44552810D02*
X42805047Y-44044810D01*
X42998571Y-44044810D01*
X43046952Y-44069000D01*
X43071143Y-44093190D01*
X43095333Y-44141571D01*
X43095333Y-44214143D01*
X43071143Y-44262524D01*
X43046952Y-44286714D01*
X42998571Y-44310905D01*
X42805047Y-44310905D01*
X43579143Y-44552810D02*
X43288857Y-44552810D01*
X43434000Y-44552810D02*
X43434000Y-44044810D01*
X43385619Y-44117381D01*
X43337238Y-44165762D01*
X43288857Y-44189952D01*
X41680190Y-47818524D02*
X41656000Y-47794334D01*
X41631810Y-47745953D01*
X41631810Y-47625000D01*
X41656000Y-47576619D01*
X41680190Y-47552429D01*
X41728571Y-47528238D01*
X41776952Y-47528238D01*
X41849524Y-47552429D01*
X42139810Y-47842715D01*
X42139810Y-47528238D01*
X41631810Y-47358905D02*
X41631810Y-47044428D01*
X41825333Y-47213762D01*
X41825333Y-47141190D01*
X41849524Y-47092809D01*
X41873714Y-47068619D01*
X41922095Y-47044428D01*
X42043048Y-47044428D01*
X42091429Y-47068619D01*
X42115619Y-47092809D01*
X42139810Y-47141190D01*
X42139810Y-47286333D01*
X42115619Y-47334714D01*
X42091429Y-47358905D01*
X42091429Y-46826714D02*
X42115619Y-46802523D01*
X42139810Y-46826714D01*
X42115619Y-46850904D01*
X42091429Y-46826714D01*
X42139810Y-46826714D01*
X41680190Y-46608999D02*
X41656000Y-46584809D01*
X41631810Y-46536428D01*
X41631810Y-46415475D01*
X41656000Y-46367094D01*
X41680190Y-46342904D01*
X41728571Y-46318713D01*
X41776952Y-46318713D01*
X41849524Y-46342904D01*
X42139810Y-46633190D01*
X42139810Y-46318713D01*
X42139810Y-46100999D02*
X41631810Y-46100999D01*
X41946286Y-46052618D02*
X42139810Y-45907475D01*
X41801143Y-45907475D02*
X41994667Y-46100999D01*
X48683333Y-37011429D02*
X48659143Y-37035619D01*
X48586571Y-37059810D01*
X48538190Y-37059810D01*
X48465619Y-37035619D01*
X48417238Y-36987238D01*
X48393047Y-36938857D01*
X48368857Y-36842095D01*
X48368857Y-36769524D01*
X48393047Y-36672762D01*
X48417238Y-36624381D01*
X48465619Y-36576000D01*
X48538190Y-36551810D01*
X48586571Y-36551810D01*
X48659143Y-36576000D01*
X48683333Y-36600190D01*
X49167143Y-37059810D02*
X48876857Y-37059810D01*
X49022000Y-37059810D02*
X49022000Y-36551810D01*
X48973619Y-36624381D01*
X48925238Y-36672762D01*
X48876857Y-36696952D01*
X47092810Y-40204572D02*
X47092810Y-40156191D01*
X47117000Y-40107810D01*
X47141190Y-40083619D01*
X47189571Y-40059429D01*
X47286333Y-40035238D01*
X47407286Y-40035238D01*
X47504048Y-40059429D01*
X47552429Y-40083619D01*
X47576619Y-40107810D01*
X47600810Y-40156191D01*
X47600810Y-40204572D01*
X47576619Y-40252953D01*
X47552429Y-40277143D01*
X47504048Y-40301334D01*
X47407286Y-40325524D01*
X47286333Y-40325524D01*
X47189571Y-40301334D01*
X47141190Y-40277143D01*
X47117000Y-40252953D01*
X47092810Y-40204572D01*
X47552429Y-39817524D02*
X47576619Y-39793333D01*
X47600810Y-39817524D01*
X47576619Y-39841714D01*
X47552429Y-39817524D01*
X47600810Y-39817524D01*
X47600810Y-39309523D02*
X47600810Y-39599809D01*
X47600810Y-39454666D02*
X47092810Y-39454666D01*
X47165381Y-39503047D01*
X47213762Y-39551428D01*
X47237952Y-39599809D01*
X47262143Y-38874094D02*
X47600810Y-38874094D01*
X47262143Y-39091809D02*
X47528238Y-39091809D01*
X47576619Y-39067618D01*
X47600810Y-39019237D01*
X47600810Y-38946666D01*
X47576619Y-38898285D01*
X47552429Y-38874094D01*
X47334714Y-38462856D02*
X47334714Y-38632190D01*
X47600810Y-38632190D02*
X47092810Y-38632190D01*
X47092810Y-38390285D01*
X48683333Y-44679810D02*
X48514000Y-44437905D01*
X48393047Y-44679810D02*
X48393047Y-44171810D01*
X48586571Y-44171810D01*
X48634952Y-44196000D01*
X48659143Y-44220190D01*
X48683333Y-44268571D01*
X48683333Y-44341143D01*
X48659143Y-44389524D01*
X48634952Y-44413714D01*
X48586571Y-44437905D01*
X48393047Y-44437905D01*
X49118762Y-44171810D02*
X49022000Y-44171810D01*
X48973619Y-44196000D01*
X48949428Y-44220190D01*
X48901047Y-44292762D01*
X48876857Y-44389524D01*
X48876857Y-44583048D01*
X48901047Y-44631429D01*
X48925238Y-44655619D01*
X48973619Y-44679810D01*
X49070381Y-44679810D01*
X49118762Y-44655619D01*
X49142952Y-44631429D01*
X49167143Y-44583048D01*
X49167143Y-44462095D01*
X49142952Y-44413714D01*
X49118762Y-44389524D01*
X49070381Y-44365333D01*
X48973619Y-44365333D01*
X48925238Y-44389524D01*
X48901047Y-44413714D01*
X48876857Y-44462095D01*
X47219810Y-47401239D02*
X47219810Y-47086762D01*
X47413333Y-47256096D01*
X47413333Y-47183524D01*
X47437524Y-47135143D01*
X47461714Y-47110953D01*
X47510095Y-47086762D01*
X47631048Y-47086762D01*
X47679429Y-47110953D01*
X47703619Y-47135143D01*
X47727810Y-47183524D01*
X47727810Y-47328667D01*
X47703619Y-47377048D01*
X47679429Y-47401239D01*
X47219810Y-46651333D02*
X47219810Y-46748095D01*
X47244000Y-46796476D01*
X47268190Y-46820667D01*
X47340762Y-46869048D01*
X47437524Y-46893238D01*
X47631048Y-46893238D01*
X47679429Y-46869048D01*
X47703619Y-46844857D01*
X47727810Y-46796476D01*
X47727810Y-46699714D01*
X47703619Y-46651333D01*
X47679429Y-46627143D01*
X47631048Y-46602952D01*
X47510095Y-46602952D01*
X47461714Y-46627143D01*
X47437524Y-46651333D01*
X47413333Y-46699714D01*
X47413333Y-46796476D01*
X47437524Y-46844857D01*
X47461714Y-46869048D01*
X47510095Y-46893238D01*
X53128333Y-37059810D02*
X52959000Y-36817905D01*
X52838047Y-37059810D02*
X52838047Y-36551810D01*
X53031571Y-36551810D01*
X53079952Y-36576000D01*
X53104143Y-36600190D01*
X53128333Y-36648571D01*
X53128333Y-36721143D01*
X53104143Y-36769524D01*
X53079952Y-36793714D01*
X53031571Y-36817905D01*
X52838047Y-36817905D01*
X53297666Y-36551810D02*
X53612143Y-36551810D01*
X53442809Y-36745333D01*
X53515381Y-36745333D01*
X53563762Y-36769524D01*
X53587952Y-36793714D01*
X53612143Y-36842095D01*
X53612143Y-36963048D01*
X53587952Y-37011429D01*
X53563762Y-37035619D01*
X53515381Y-37059810D01*
X53370238Y-37059810D01*
X53321857Y-37035619D01*
X53297666Y-37011429D01*
X51664810Y-39490953D02*
X51664810Y-39732858D01*
X51906714Y-39757048D01*
X51882524Y-39732858D01*
X51858333Y-39684477D01*
X51858333Y-39563524D01*
X51882524Y-39515143D01*
X51906714Y-39490953D01*
X51955095Y-39466762D01*
X52076048Y-39466762D01*
X52124429Y-39490953D01*
X52148619Y-39515143D01*
X52172810Y-39563524D01*
X52172810Y-39684477D01*
X52148619Y-39732858D01*
X52124429Y-39757048D01*
X51664810Y-39031333D02*
X51664810Y-39128095D01*
X51689000Y-39176476D01*
X51713190Y-39200667D01*
X51785762Y-39249048D01*
X51882524Y-39273238D01*
X52076048Y-39273238D01*
X52124429Y-39249048D01*
X52148619Y-39224857D01*
X52172810Y-39176476D01*
X52172810Y-39079714D01*
X52148619Y-39031333D01*
X52124429Y-39007143D01*
X52076048Y-38982952D01*
X51955095Y-38982952D01*
X51906714Y-39007143D01*
X51882524Y-39031333D01*
X51858333Y-39079714D01*
X51858333Y-39176476D01*
X51882524Y-39224857D01*
X51906714Y-39249048D01*
X51955095Y-39273238D01*
X57573333Y-37059810D02*
X57404000Y-36817905D01*
X57283047Y-37059810D02*
X57283047Y-36551810D01*
X57476571Y-36551810D01*
X57524952Y-36576000D01*
X57549143Y-36600190D01*
X57573333Y-36648571D01*
X57573333Y-36721143D01*
X57549143Y-36769524D01*
X57524952Y-36793714D01*
X57476571Y-36817905D01*
X57283047Y-36817905D01*
X57742666Y-36551810D02*
X58081333Y-36551810D01*
X57863619Y-37059810D01*
X56158190Y-40204572D02*
X56134000Y-40180382D01*
X56109810Y-40132001D01*
X56109810Y-40011048D01*
X56134000Y-39962667D01*
X56158190Y-39938477D01*
X56206571Y-39914286D01*
X56254952Y-39914286D01*
X56327524Y-39938477D01*
X56617810Y-40228763D01*
X56617810Y-39914286D01*
X56109810Y-39599810D02*
X56109810Y-39551429D01*
X56134000Y-39503048D01*
X56158190Y-39478857D01*
X56206571Y-39454667D01*
X56303333Y-39430476D01*
X56424286Y-39430476D01*
X56521048Y-39454667D01*
X56569429Y-39478857D01*
X56593619Y-39503048D01*
X56617810Y-39551429D01*
X56617810Y-39599810D01*
X56593619Y-39648191D01*
X56569429Y-39672381D01*
X56521048Y-39696572D01*
X56424286Y-39720762D01*
X56303333Y-39720762D01*
X56206571Y-39696572D01*
X56158190Y-39672381D01*
X56134000Y-39648191D01*
X56109810Y-39599810D01*
X56109810Y-39116000D02*
X56109810Y-39067619D01*
X56134000Y-39019238D01*
X56158190Y-38995047D01*
X56206571Y-38970857D01*
X56303333Y-38946666D01*
X56424286Y-38946666D01*
X56521048Y-38970857D01*
X56569429Y-38995047D01*
X56593619Y-39019238D01*
X56617810Y-39067619D01*
X56617810Y-39116000D01*
X56593619Y-39164381D01*
X56569429Y-39188571D01*
X56521048Y-39212762D01*
X56424286Y-39236952D01*
X56303333Y-39236952D01*
X56206571Y-39212762D01*
X56158190Y-39188571D01*
X56134000Y-39164381D01*
X56109810Y-39116000D01*
X56617810Y-38728952D02*
X56109810Y-38728952D01*
X56424286Y-38680571D02*
X56617810Y-38535428D01*
X56279143Y-38535428D02*
X56472667Y-38728952D01*
X52838047Y-44679810D02*
X52838047Y-44171810D01*
X52959000Y-44171810D01*
X53031571Y-44196000D01*
X53079952Y-44244381D01*
X53104143Y-44292762D01*
X53128333Y-44389524D01*
X53128333Y-44462095D01*
X53104143Y-44558857D01*
X53079952Y-44607238D01*
X53031571Y-44655619D01*
X52959000Y-44679810D01*
X52838047Y-44679810D01*
X53321857Y-44220190D02*
X53346047Y-44196000D01*
X53394428Y-44171810D01*
X53515381Y-44171810D01*
X53563762Y-44196000D01*
X53587952Y-44220190D01*
X53612143Y-44268571D01*
X53612143Y-44316952D01*
X53587952Y-44389524D01*
X53297666Y-44679810D01*
X53612143Y-44679810D01*
X52172810Y-49022000D02*
X52172810Y-49263905D01*
X51664810Y-49263905D01*
X51906714Y-48852667D02*
X51906714Y-48683333D01*
X52172810Y-48610762D02*
X52172810Y-48852667D01*
X51664810Y-48852667D01*
X51664810Y-48610762D01*
X52172810Y-48393048D02*
X51664810Y-48393048D01*
X51664810Y-48272095D01*
X51689000Y-48199524D01*
X51737381Y-48151143D01*
X51785762Y-48126952D01*
X51882524Y-48102762D01*
X51955095Y-48102762D01*
X52051857Y-48126952D01*
X52100238Y-48151143D01*
X52148619Y-48199524D01*
X52172810Y-48272095D01*
X52172810Y-48393048D01*
X52221190Y-48006000D02*
X52221190Y-47618952D01*
X52124429Y-47207714D02*
X52148619Y-47231904D01*
X52172810Y-47304476D01*
X52172810Y-47352857D01*
X52148619Y-47425428D01*
X52100238Y-47473809D01*
X52051857Y-47498000D01*
X51955095Y-47522190D01*
X51882524Y-47522190D01*
X51785762Y-47498000D01*
X51737381Y-47473809D01*
X51689000Y-47425428D01*
X51664810Y-47352857D01*
X51664810Y-47304476D01*
X51689000Y-47231904D01*
X51713190Y-47207714D01*
X51664810Y-46990000D02*
X52076048Y-46990000D01*
X52124429Y-46965809D01*
X52148619Y-46941619D01*
X52172810Y-46893238D01*
X52172810Y-46796476D01*
X52148619Y-46748095D01*
X52124429Y-46723904D01*
X52076048Y-46699714D01*
X51664810Y-46699714D01*
X52148619Y-46482000D02*
X52172810Y-46409429D01*
X52172810Y-46288476D01*
X52148619Y-46240095D01*
X52124429Y-46215905D01*
X52076048Y-46191714D01*
X52027667Y-46191714D01*
X51979286Y-46215905D01*
X51955095Y-46240095D01*
X51930905Y-46288476D01*
X51906714Y-46385238D01*
X51882524Y-46433619D01*
X51858333Y-46457810D01*
X51809952Y-46482000D01*
X51761571Y-46482000D01*
X51713190Y-46457810D01*
X51689000Y-46433619D01*
X51664810Y-46385238D01*
X51664810Y-46264286D01*
X51689000Y-46191714D01*
X51664810Y-46046571D02*
X51664810Y-45756285D01*
X52172810Y-45901428D02*
X51664810Y-45901428D01*
X51664810Y-45490190D02*
X51664810Y-45393428D01*
X51689000Y-45345047D01*
X51737381Y-45296666D01*
X51834143Y-45272475D01*
X52003476Y-45272475D01*
X52100238Y-45296666D01*
X52148619Y-45345047D01*
X52172810Y-45393428D01*
X52172810Y-45490190D01*
X52148619Y-45538571D01*
X52100238Y-45586952D01*
X52003476Y-45611142D01*
X51834143Y-45611142D01*
X51737381Y-45586952D01*
X51689000Y-45538571D01*
X51664810Y-45490190D01*
X52172810Y-45054762D02*
X51664810Y-45054762D01*
X52027667Y-44885428D01*
X51664810Y-44716095D01*
X52172810Y-44716095D01*
X60458047Y-39599810D02*
X60458047Y-39091810D01*
X60579000Y-39091810D01*
X60651571Y-39116000D01*
X60699952Y-39164381D01*
X60724143Y-39212762D01*
X60748333Y-39309524D01*
X60748333Y-39382095D01*
X60724143Y-39478857D01*
X60699952Y-39527238D01*
X60651571Y-39575619D01*
X60579000Y-39599810D01*
X60458047Y-39599810D01*
X61232143Y-39599810D02*
X60941857Y-39599810D01*
X61087000Y-39599810D02*
X61087000Y-39091810D01*
X61038619Y-39164381D01*
X60990238Y-39212762D01*
X60941857Y-39236952D01*
D16*
X32868810Y-41231457D02*
X32360810Y-41231457D01*
X32360810Y-41122600D01*
X32385000Y-41057285D01*
X32433381Y-41013743D01*
X32481762Y-40991971D01*
X32578524Y-40970200D01*
X32651095Y-40970200D01*
X32747857Y-40991971D01*
X32796238Y-41013743D01*
X32844619Y-41057285D01*
X32868810Y-41122600D01*
X32868810Y-41231457D01*
X32360810Y-40817800D02*
X32360810Y-40534771D01*
X32554333Y-40687171D01*
X32554333Y-40621857D01*
X32578524Y-40578314D01*
X32602714Y-40556543D01*
X32651095Y-40534771D01*
X32772048Y-40534771D01*
X32820429Y-40556543D01*
X32844619Y-40578314D01*
X32868810Y-40621857D01*
X32868810Y-40752485D01*
X32844619Y-40796028D01*
X32820429Y-40817800D01*
D11*
X32905096Y-58625619D02*
X32905096Y-57609619D01*
X33292143Y-57609619D01*
X33388905Y-57658000D01*
X33437286Y-57706381D01*
X33485667Y-57803143D01*
X33485667Y-57948286D01*
X33437286Y-58045048D01*
X33388905Y-58093429D01*
X33292143Y-58141810D01*
X32905096Y-58141810D01*
X34404905Y-57609619D02*
X33921096Y-57609619D01*
X33872715Y-58093429D01*
X33921096Y-58045048D01*
X34017858Y-57996667D01*
X34259762Y-57996667D01*
X34356524Y-58045048D01*
X34404905Y-58093429D01*
X34453286Y-58190190D01*
X34453286Y-58432095D01*
X34404905Y-58528857D01*
X34356524Y-58577238D01*
X34259762Y-58625619D01*
X34017858Y-58625619D01*
X33921096Y-58577238D01*
X33872715Y-58528857D01*
X31127096Y-26875619D02*
X31127096Y-25859619D01*
X31514143Y-25859619D01*
X31610905Y-25908000D01*
X31659286Y-25956381D01*
X31707667Y-26053143D01*
X31707667Y-26198286D01*
X31659286Y-26295048D01*
X31610905Y-26343429D01*
X31514143Y-26391810D01*
X31127096Y-26391810D01*
X32675286Y-26875619D02*
X32094715Y-26875619D01*
X32385001Y-26875619D02*
X32385001Y-25859619D01*
X32288239Y-26004762D01*
X32191477Y-26101524D01*
X32094715Y-26149905D01*
X42303129Y-26875619D02*
X42303129Y-25859619D01*
X42690176Y-25859619D01*
X42786938Y-25908000D01*
X42835319Y-25956381D01*
X42883700Y-26053143D01*
X42883700Y-26198286D01*
X42835319Y-26295048D01*
X42786938Y-26343429D01*
X42690176Y-26391810D01*
X42303129Y-26391810D01*
X43270748Y-25956381D02*
X43319129Y-25908000D01*
X43415891Y-25859619D01*
X43657795Y-25859619D01*
X43754557Y-25908000D01*
X43802938Y-25956381D01*
X43851319Y-26053143D01*
X43851319Y-26149905D01*
X43802938Y-26295048D01*
X43222367Y-26875619D01*
X43851319Y-26875619D01*
X53606063Y-26875619D02*
X53606063Y-25859619D01*
X53993110Y-25859619D01*
X54089872Y-25908000D01*
X54138253Y-25956381D01*
X54186634Y-26053143D01*
X54186634Y-26198286D01*
X54138253Y-26295048D01*
X54089872Y-26343429D01*
X53993110Y-26391810D01*
X53606063Y-26391810D01*
X54525301Y-25859619D02*
X55154253Y-25859619D01*
X54815587Y-26246667D01*
X54960729Y-26246667D01*
X55057491Y-26295048D01*
X55105872Y-26343429D01*
X55154253Y-26440190D01*
X55154253Y-26682095D01*
X55105872Y-26778857D01*
X55057491Y-26827238D01*
X54960729Y-26875619D01*
X54670444Y-26875619D01*
X54573682Y-26827238D01*
X54525301Y-26778857D01*
X64909096Y-26875619D02*
X64909096Y-25859619D01*
X65296143Y-25859619D01*
X65392905Y-25908000D01*
X65441286Y-25956381D01*
X65489667Y-26053143D01*
X65489667Y-26198286D01*
X65441286Y-26295048D01*
X65392905Y-26343429D01*
X65296143Y-26391810D01*
X64909096Y-26391810D01*
X66360524Y-26198286D02*
X66360524Y-26875619D01*
X66118620Y-25811238D02*
X65876715Y-26536952D01*
X66505667Y-26536952D01*
M02*
