G04 #@! TF.FileFunction,Copper,L2,Bot,Signal*
%FSLAX46Y46*%
G04 Gerber Fmt 4.6, Leading zero omitted, Abs format (unit mm)*
G04 Created by KiCad (PCBNEW 4.0.7-e2-6376~58~ubuntu16.04.1) date Mon Aug 27 17:30:18 2018*
%MOMM*%
%LPD*%
G01*
G04 APERTURE LIST*
%ADD10C,0.150000*%
%ADD11C,1.930400*%
%ADD12C,3.175000*%
%ADD13C,2.540000*%
%ADD14C,3.302000*%
%ADD15C,1.524000*%
%ADD16R,1.800000X1.800000*%
%ADD17C,1.800000*%
%ADD18C,0.889000*%
%ADD19C,0.889000*%
%ADD20C,0.304800*%
G04 APERTURE END LIST*
D10*
D11*
X39220140Y-58039000D03*
X41719500Y-58039000D03*
X44218860Y-58039000D03*
D12*
X36817300Y-55839360D03*
X46621700Y-55839360D03*
D13*
X60020200Y-55880000D03*
X64770000Y-55880000D03*
X69519800Y-55880000D03*
D14*
X28575000Y-60325000D03*
X79375000Y-28575000D03*
X28575000Y-28575000D03*
D15*
X69088000Y-46990000D03*
X69088000Y-44450000D03*
X69088000Y-41910000D03*
X69088000Y-39370000D03*
D14*
X79375000Y-60325000D03*
D16*
X66512440Y-28956000D03*
D17*
X70012560Y-28956000D03*
D16*
X52224940Y-28956000D03*
D17*
X55725060Y-28956000D03*
D16*
X37937440Y-28956000D03*
D17*
X41437560Y-28956000D03*
D18*
X39745600Y-46131600D03*
X48387000Y-39370000D03*
X72356700Y-53141600D03*
D19*
X39220140Y-58039000D02*
X39220140Y-57172860D01*
X39220140Y-57172860D02*
X44323000Y-52070000D01*
X37937400Y-45684400D02*
X37937400Y-28956000D01*
X39102100Y-46849100D02*
X37937400Y-45684400D01*
D20*
X39745600Y-46205600D02*
X39745600Y-46131600D01*
X39102100Y-46849100D02*
X39745600Y-46205600D01*
D19*
X47498000Y-52070000D02*
X44998300Y-52070000D01*
X53721000Y-58293000D02*
X47498000Y-52070000D01*
X68707000Y-58293000D02*
X53721000Y-58293000D01*
X69519800Y-57480200D02*
X68707000Y-58293000D01*
X69519800Y-55880000D02*
X69519800Y-57480200D01*
X44323000Y-52070000D02*
X39102100Y-46849100D01*
X44998300Y-52070000D02*
X44323000Y-52070000D01*
D20*
X39220100Y-57848200D02*
X39220100Y-58039000D01*
D19*
X41437600Y-47025600D02*
X41437600Y-28956000D01*
X44958000Y-50546000D02*
X41437600Y-47025600D01*
X59817000Y-50546000D02*
X44958000Y-50546000D01*
X64770000Y-55499000D02*
X59817000Y-50546000D01*
X64770000Y-55880000D02*
X64770000Y-55499000D01*
X64770000Y-55880000D02*
X64770000Y-56642000D01*
D20*
X48387000Y-39370000D02*
X69088000Y-39370000D01*
D19*
X52224900Y-30380900D02*
X52224900Y-28956000D01*
X55499000Y-33655000D02*
X52224900Y-30380900D01*
X65532000Y-33655000D02*
X55499000Y-33655000D01*
X71374000Y-39497000D02*
X65532000Y-33655000D01*
X71374000Y-42291000D02*
X71374000Y-39497000D01*
X69215000Y-44450000D02*
X71374000Y-42291000D01*
X69088000Y-44450000D02*
X69215000Y-44450000D01*
X67616000Y-45922000D02*
X69088000Y-44450000D01*
X67616000Y-48400900D02*
X67616000Y-45922000D01*
X72356700Y-53141600D02*
X67616000Y-48400900D01*
M02*
